<svg xmlns="http://www.w3.org/2000/svg" width="38" height="38" viewBox="0 0 38 38">
  <defs>
    <style>
      .cls-1 {
        fill: #fff;
        fill-rule: evenodd;
      }
    </style>
  </defs>
  <path id="Shape_1_copy" data-name="Shape 1 copy" class="cls-1" d="M27.217,3.416a11.46,11.46,0,0,1,2.468,3.6,10.129,10.129,0,0,1,.849,4.055l0.357-.356a2.372,2.372,0,0,1,4.025,1.624A2.253,2.253,0,0,1,34.183,14L19.722,28.453a2.27,2.27,0,0,1-3.3.007A2.233,2.233,0,0,1,15.7,26.8a2.315,2.315,0,0,1,.731-1.634l9.143-9.136a5.233,5.233,0,0,0,1.478-2.735A6.2,6.2,0,0,0,26.8,10.06,7.763,7.763,0,0,0,24.88,7.041,7.309,7.309,0,0,0,19.8,4.66a7.429,7.429,0,0,0-5.376,2.565L6.452,15.194a2.27,2.27,0,0,1-3.3.007,2.265,2.265,0,0,1,.007-3.3l7.976-7.969A13.268,13.268,0,0,1,16.627.448a9.684,9.684,0,0,1,5.614-.06,11.592,11.592,0,0,1,4.976,3.028h0Z"/>
  <path id="Shape_1_copy_2" data-name="Shape 1 copy 2" class="cls-1" d="M10.672,34.584a11.461,11.461,0,0,1-2.468-3.6,10.129,10.129,0,0,1-.849-4.055L7,27.286a2.3,2.3,0,0,1-1.652.747,2.281,2.281,0,0,1-1.649-.74,2.294,2.294,0,0,1-.725-1.631A2.253,2.253,0,0,1,3.706,24L18.167,9.547a2.27,2.27,0,0,1,3.3-.007,2.233,2.233,0,0,1,.724,1.663,2.316,2.316,0,0,1-.731,1.634l-9.143,9.136a5.233,5.233,0,0,0-1.478,2.735,6.2,6.2,0,0,0,.252,3.232,7.764,7.764,0,0,0,1.919,3.019,7.309,7.309,0,0,0,5.075,2.381,7.429,7.429,0,0,0,5.376-2.565l7.976-7.969A2.328,2.328,0,1,1,34.73,26.1l-7.976,7.969a13.268,13.268,0,0,1-5.492,3.487,9.684,9.684,0,0,1-5.614.06,11.592,11.592,0,0,1-4.976-3.028h0Z"/>
</svg>
